#N canvas 522 101 789 464 10;
#X obj 16 62 nbx 5 14 -1e+37 1e+37 0 1 empty empty m 58 8 0 10 #fcfcfc
#000000 #000000 62 256;
#X obj 16 78 mtof;
#X obj 16 99 nbx 5 14 -1e+37 1e+37 0 0 empty empty freq 58 8 0 10 #fcfcfc
#000000 #000000 293.665 256;
#X msg 16 137 \$1 25;
#X obj 16 158 line~;
#X obj 393 135 nbx 5 14 0 1e+37 0 1 empty empty level 58 8 0 10 #fcfcfc
#000000 #000000 4 256;
#X obj 393 151 * 0.01;
#X obj 368 172 *~ 0;
#X obj 368 200 dac~;
#X obj 510 112 vradio 15 1 1 8 empty empty empty 0 -8 0 10 #fcfcfc
#000000 #000000 0;
#X text 524 113 _saw;
#X text 524 128 _square;
#X text 524 143 _pulse;
#X text 524 158 _sinepulse;
#X text 524 173 _halfpulse;
#X text 524 188 _res-saw;
#X text 524 203 _res-triangle;
#X text 524 218 _res-trapezoid;
#X msg 510 236 type1 \$1;
#X obj 660 112 vradio 15 1 1 8 empty empty empty 0 -8 0 10 #fcfcfc
#000000 #000000 0;
#X text 674 113 _saw;
#X text 674 128 _square;
#X text 674 143 _pulse;
#X text 674 158 _sinepulse;
#X text 674 173 _halfpulse;
#X text 674 188 _res-saw;
#X text 674 203 _res-triangle;
#X text 674 218 _res-trapezoid;
#X msg 660 236 type2 \$1;
#X msg 543 355 \$1 25;
#X obj 543 376 line~;
#X obj 543 318 nbx 5 14 0 100 0 1 empty empty wave 58 8 0 10 #fcfcfc
#000000 #000000 100 256;
#X obj 543 334 * 0.01;
#X obj 15 346 cz~;
#X text 255 6 Emulates the oscillators from Casio CZ series.;
#N canvas 0 50 450 250 (subpatch) 0;
#X array \$0-scop 128 float 0;
#X coords 0 1 127 -1 128 100 1 0 0;
#X restore 348 313 graph;
#X obj 350 269 tabwrite~ \$0-scop;
#X obj 362 229 tgl 15 1 empty empty empty 17 7 0 10 #fcfcfc #000000
#000000 1 1;
#X obj 362 246 metro 50;
#X text 241 33 Reference: https://github.com/MikeMorenoDSP/pd-mkmr
;
#X text 413 59 Author: Mike Moser Booth;
#X obj 510 257 s to;
#X obj 660 257 s to;
#X obj 27 317 r to;
#X obj 171 62 nbx 5 14 -1e+37 1e+37 0 1 empty empty mult_phase 58 8
0 10 #fcfcfc #000000 #000000 100 256;
#X obj 171 78 * 0.01;
#X obj 172 142 nbx 5 14 -1e+37 1e+37 0 1 empty empty add_to_phase 58
8 0 10 #fcfcfc #000000 #000000 0 256;
#X obj 172 158 * 0.01;
#X obj 16 179 s~ freq;
#X obj 171 100 s mult;
#X obj 172 179 s add;
#X obj 543 397 s~ wave;
#X obj 66 318 r~ wave;
#X obj 16 228 r~ freq;
#X obj 16 249 phasor~;
#X obj 16 271 *~ 1;
#X obj 16 292 +~ 0;
#X obj 74 252 r mult;
#X obj 74 273 r add;
#X obj 95 406 *~ 0;
#X obj 15 407 *~ 0;
#X obj 202 225 vradio 15 1 1 4 empty empty Oversampling 0 -8 0 10 #fcfcfc
#000000 #000000 0;
#X text 216 226 _no;
#X text 216 256 _8x;
#X text 216 241 _4x;
#X text 216 271 _16x;
#X obj 202 290 s os;
#X obj 40 361 r os;
#X obj 40 385 == 0;
#X obj 15 428 throw~ gen;
#X obj 349 106 catch~ gen;
#X obj 120 362 r os;
#X obj 120 383 == 1;
#X obj 95 428 throw~ gen;
#X obj 175 406 *~ 0;
#N canvas 370 45 751 533 8xOS 0;
#X obj 21 200 cz~;
#X obj 33 171 r to;
#X obj 72 172 r~ wave;
#X obj 22 68 r~ freq;
#X obj 22 89 phasor~;
#X obj 22 116 *~ 1;
#X obj 22 146 +~ 0;
#X obj 80 97 r mult;
#X obj 80 127 r add;
#X obj 19 497 outlet~;
#X obj 20 390 *~ 0.125;
#X obj 20 413 rzero~ -1;
#X obj 20 436 rzero~ -1;
#X obj 20 459 rzero~ -1;
#X obj 20 255 *~ 0.2368;
#X obj 21 301 *~ 0.06261;
#X obj 20 278 rpole~ 0.76319;
#X obj 20 344 cpole~ 0.85223 0.20194;
#X obj 20 368 cpole~ 0.85223 -0.2019;
#X floatatom 374 204 7 0 0 0 - - -;
#X floatatom 374 417 7 0 0 0 - - -;
#X obj 374 229 / 22050;
#X floatatom 393 395 7 0 0 0 - - -;
#X floatatom 412 373 7 0 0 0 - - -;
#X floatatom 431 351 7 0 0 0 - - -;
#X floatatom 450 329 7 0 0 0 - - -;
#X floatatom 469 307 7 0 0 0 - - -;
#X text 430 418 normalizer for rpole~;
#X text 452 395 normalizer for cpole~;
#X text 470 374 coef for rpole~;
#X text 490 353 coef for cpole~ real part;
#X text 529 309 coef for cpole~ imag part;
#X text 521 329 (same \, other cpole~);
#X msg 374 179 15000;
#X text 424 178 desired cutoff frequency;
#X text 439 223 divide by nyquist frequency of this subpatch \, which
is 22050*16 because of the 16-times oversampling., f 36;
#X text 368 126 Here is how to calculate the filter coefficients:;
#X text 255 47 These objects make a 3-pole \, 3-zero Butterworth low-pass
filter with cutoff at 15kHz (assuming 16x44100 sample rate). The filter
was designed using the "buttercoef3" abstraction introduced in patch
H13.butterworth.pd in this series.;
#N canvas 0 50 815 623 buttercoef3 0;
#X obj 119 96 inlet;
#X floatatom 582 159 5 0 0 0 - - -;
#X obj 159 199 t f f, f 7;
#X msg 159 151 0.667;
#X msg 139 329 0;
#X obj 575 316 loadbang;
#X obj 586 344 inlet;
#X obj 575 368 f;
#X obj 575 392 expr 1 - 2*$f1;
#X obj 119 124 t b b b f;
#X obj 266 277 * -1;
#X obj 221 277 t f f;
#X obj 119 437 f;
#X obj 66 533 outlet;
#X text 573 283 1 to normalize at Nyquist;
#X text 115 75 characteristic frequency \, 0(DC) to 1(Nyquist);
#X obj 341 533 outlet;
#X obj 497 533 outlet;
#X text 497 557 imag2a;
#X text 341 557 real1;
#X text 432 557 real2;
#X obj 558 533 outlet;
#X text 558 557 imag2b;
#X obj 431 533 outlet;
#X text 63 557 normalizer1;
#X obj 231 533 outlet;
#X text 228 557 normalizer2;
#X obj 231 482 expr (($f2-$f1)*($f2-$f1)+$f3*$f3);
#X obj 119 458 t f f;
#X obj 159 222 expr (1 - $f2*$f2) / (1 + $f2*$f2 + 2*$f2*cos($f1))
;
#X obj 221 250 expr 2*$f2*sin($f1) / (1 + $f2*$f2 + 2*$f2*cos($f1))
;
#X obj 139 353 expr (1 - $f2*$f2) / (1 + $f2*$f2 + 2*$f2*cos($f1))
;
#X obj 582 114 clip 0 1;
#X obj 582 136 expr tan($f1*1.57);
#X obj 159 176 expr $f1*1.5708;
#X text 573 297 0 to normalize at DC;
#X text 175 23 3-pole (or zero) Butterworth filter coefficient calculator
;
#X text 203 152 "theta" in units of pi/2;
#X text 269 183 conjugate pair of pole/zero locations:;
#X text 255 200 real part: (1-r*r)/(1+r*r-2rcos(th));
#X text 306 275 imaginary part: 2rsin(th)/(...);
#X text 328 328 real-valued one \, theta=0;
#X obj 66 505 expr abs($f1-$f2);
#X connect 0 0 9 0;
#X connect 1 0 29 1;
#X connect 1 0 30 1;
#X connect 1 0 31 1;
#X connect 2 0 29 0;
#X connect 2 1 30 0;
#X connect 3 0 34 0;
#X connect 4 0 31 0;
#X connect 5 0 7 0;
#X connect 6 0 7 0;
#X connect 7 0 8 0;
#X connect 8 0 12 1;
#X connect 9 0 12 0;
#X connect 9 1 4 0;
#X connect 9 2 3 0;
#X connect 9 3 32 0;
#X connect 10 0 21 0;
#X connect 11 0 17 0;
#X connect 11 0 27 2;
#X connect 11 1 10 0;
#X connect 12 0 28 0;
#X connect 27 0 25 0;
#X connect 28 0 42 0;
#X connect 28 1 27 0;
#X connect 29 0 23 0;
#X connect 29 0 27 1;
#X connect 30 0 11 0;
#X connect 31 0 16 0;
#X connect 31 0 42 1;
#X connect 32 0 33 0;
#X connect 33 0 1 0;
#X connect 34 0 2 0;
#X connect 42 0 13 0;
#X restore 374 278 pd buttercoef3;
#X obj 374 254 / 8;
#X text 417 21 From pd-doc.;
#X obj 121 314 sig~;
#X obj 171 314 sig~;
#X obj 197 342 sig~;
#X obj 168 475 block~ 64 1 8;
#X obj 374 158 loadbang;
#X connect 0 0 14 0;
#X connect 1 0 0 0;
#X connect 2 0 0 1;
#X connect 3 0 4 0;
#X connect 4 0 5 0;
#X connect 5 0 6 0;
#X connect 6 0 0 0;
#X connect 7 0 5 1;
#X connect 8 0 6 1;
#X connect 10 0 11 0;
#X connect 11 0 12 0;
#X connect 12 0 13 0;
#X connect 13 0 9 0;
#X connect 14 0 16 0;
#X connect 15 0 17 0;
#X connect 16 0 15 0;
#X connect 17 0 18 0;
#X connect 17 1 18 1;
#X connect 18 0 10 0;
#X connect 19 0 21 0;
#X connect 20 0 14 1;
#X connect 21 0 39 0;
#X connect 22 0 15 1;
#X connect 23 0 16 1;
#X connect 24 0 41 0;
#X connect 25 0 42 0;
#X connect 26 0 43 0;
#X connect 33 0 19 0;
#X connect 38 0 20 0;
#X connect 38 1 22 0;
#X connect 38 2 23 0;
#X connect 38 3 24 0;
#X connect 38 4 25 0;
#X connect 38 5 26 0;
#X connect 39 0 38 0;
#X connect 41 0 17 2;
#X connect 41 0 18 2;
#X connect 42 0 17 3;
#X connect 43 0 18 3;
#X connect 45 0 33 0;
#X restore 175 340 pd 8xOS;
#X obj 200 362 r os;
#X obj 175 428 throw~ gen;
#X obj 255 406 *~ 0;
#X obj 280 362 r os;
#X obj 255 428 throw~ gen;
#X obj 200 383 == 2;
#X obj 280 383 == 3;
#N canvas 370 45 751 533 4xOS 0;
#X obj 21 200 cz~;
#X obj 33 171 r to;
#X obj 72 172 r~ wave;
#X obj 22 68 r~ freq;
#X obj 22 89 phasor~;
#X obj 22 116 *~ 1;
#X obj 22 146 +~ 0;
#X obj 80 97 r mult;
#X obj 80 127 r add;
#X obj 19 497 outlet~;
#X obj 20 390 *~ 0.125;
#X obj 20 413 rzero~ -1;
#X obj 20 436 rzero~ -1;
#X obj 20 459 rzero~ -1;
#X obj 20 255 *~ 0.2368;
#X obj 21 301 *~ 0.06261;
#X obj 20 278 rpole~ 0.76319;
#X obj 20 344 cpole~ 0.85223 0.20194;
#X obj 20 368 cpole~ 0.85223 -0.2019;
#X floatatom 374 204 7 0 0 0 - - -;
#X floatatom 374 417 7 0 0 0 - - -;
#X obj 374 229 / 22050;
#X floatatom 393 395 7 0 0 0 - - -;
#X floatatom 412 373 7 0 0 0 - - -;
#X floatatom 431 351 7 0 0 0 - - -;
#X floatatom 450 329 7 0 0 0 - - -;
#X floatatom 469 307 7 0 0 0 - - -;
#X text 430 418 normalizer for rpole~;
#X text 452 395 normalizer for cpole~;
#X text 470 374 coef for rpole~;
#X text 490 353 coef for cpole~ real part;
#X text 529 309 coef for cpole~ imag part;
#X text 521 329 (same \, other cpole~);
#X msg 374 179 15000;
#X text 424 178 desired cutoff frequency;
#X text 439 223 divide by nyquist frequency of this subpatch \, which
is 22050*16 because of the 16-times oversampling., f 36;
#X text 368 126 Here is how to calculate the filter coefficients:;
#X text 255 47 These objects make a 3-pole \, 3-zero Butterworth low-pass
filter with cutoff at 15kHz (assuming 16x44100 sample rate). The filter
was designed using the "buttercoef3" abstraction introduced in patch
H13.butterworth.pd in this series.;
#N canvas 0 50 815 623 buttercoef3 0;
#X obj 119 96 inlet;
#X floatatom 582 159 5 0 0 0 - - -;
#X obj 159 199 t f f, f 7;
#X msg 159 151 0.667;
#X msg 139 329 0;
#X obj 575 316 loadbang;
#X obj 586 344 inlet;
#X obj 575 368 f;
#X obj 575 392 expr 1 - 2*$f1;
#X obj 119 124 t b b b f;
#X obj 266 277 * -1;
#X obj 221 277 t f f;
#X obj 119 437 f;
#X obj 66 533 outlet;
#X text 573 283 1 to normalize at Nyquist;
#X text 115 75 characteristic frequency \, 0(DC) to 1(Nyquist);
#X obj 341 533 outlet;
#X obj 497 533 outlet;
#X text 497 557 imag2a;
#X text 341 557 real1;
#X text 432 557 real2;
#X obj 558 533 outlet;
#X text 558 557 imag2b;
#X obj 431 533 outlet;
#X text 63 557 normalizer1;
#X obj 231 533 outlet;
#X text 228 557 normalizer2;
#X obj 231 482 expr (($f2-$f1)*($f2-$f1)+$f3*$f3);
#X obj 119 458 t f f;
#X obj 159 222 expr (1 - $f2*$f2) / (1 + $f2*$f2 + 2*$f2*cos($f1))
;
#X obj 221 250 expr 2*$f2*sin($f1) / (1 + $f2*$f2 + 2*$f2*cos($f1))
;
#X obj 139 353 expr (1 - $f2*$f2) / (1 + $f2*$f2 + 2*$f2*cos($f1))
;
#X obj 582 114 clip 0 1;
#X obj 582 136 expr tan($f1*1.57);
#X obj 159 176 expr $f1*1.5708;
#X text 573 297 0 to normalize at DC;
#X text 175 23 3-pole (or zero) Butterworth filter coefficient calculator
;
#X text 203 152 "theta" in units of pi/2;
#X text 269 183 conjugate pair of pole/zero locations:;
#X text 255 200 real part: (1-r*r)/(1+r*r-2rcos(th));
#X text 306 275 imaginary part: 2rsin(th)/(...);
#X text 328 328 real-valued one \, theta=0;
#X obj 66 505 expr abs($f1-$f2);
#X connect 0 0 9 0;
#X connect 1 0 29 1;
#X connect 1 0 30 1;
#X connect 1 0 31 1;
#X connect 2 0 29 0;
#X connect 2 1 30 0;
#X connect 3 0 34 0;
#X connect 4 0 31 0;
#X connect 5 0 7 0;
#X connect 6 0 7 0;
#X connect 7 0 8 0;
#X connect 8 0 12 1;
#X connect 9 0 12 0;
#X connect 9 1 4 0;
#X connect 9 2 3 0;
#X connect 9 3 32 0;
#X connect 10 0 21 0;
#X connect 11 0 17 0;
#X connect 11 0 27 2;
#X connect 11 1 10 0;
#X connect 12 0 28 0;
#X connect 27 0 25 0;
#X connect 28 0 42 0;
#X connect 28 1 27 0;
#X connect 29 0 23 0;
#X connect 29 0 27 1;
#X connect 30 0 11 0;
#X connect 31 0 16 0;
#X connect 31 0 42 1;
#X connect 32 0 33 0;
#X connect 33 0 1 0;
#X connect 34 0 2 0;
#X connect 42 0 13 0;
#X restore 374 278 pd buttercoef3;
#X text 417 21 From pd-doc.;
#X obj 121 314 sig~;
#X obj 171 314 sig~;
#X obj 197 342 sig~;
#X obj 374 158 loadbang;
#X obj 168 475 block~ 64 1 4;
#X obj 374 254 / 4;
#X connect 0 0 14 0;
#X connect 1 0 0 0;
#X connect 2 0 0 1;
#X connect 3 0 4 0;
#X connect 4 0 5 0;
#X connect 5 0 6 0;
#X connect 6 0 0 0;
#X connect 7 0 5 1;
#X connect 8 0 6 1;
#X connect 10 0 11 0;
#X connect 11 0 12 0;
#X connect 12 0 13 0;
#X connect 13 0 9 0;
#X connect 14 0 16 0;
#X connect 15 0 17 0;
#X connect 16 0 15 0;
#X connect 17 0 18 0;
#X connect 17 1 18 1;
#X connect 18 0 10 0;
#X connect 19 0 21 0;
#X connect 20 0 14 1;
#X connect 21 0 45 0;
#X connect 22 0 15 1;
#X connect 23 0 16 1;
#X connect 24 0 40 0;
#X connect 25 0 41 0;
#X connect 26 0 42 0;
#X connect 33 0 19 0;
#X connect 38 0 20 0;
#X connect 38 1 22 0;
#X connect 38 2 23 0;
#X connect 38 3 24 0;
#X connect 38 4 25 0;
#X connect 38 5 26 0;
#X connect 40 0 17 2;
#X connect 40 0 18 2;
#X connect 41 0 17 3;
#X connect 42 0 18 3;
#X connect 43 0 33 0;
#X connect 45 0 38 0;
#X restore 95 340 pd 4xOS;
#N canvas 370 45 751 533 16xOS 0;
#X obj 21 200 cz~;
#X obj 33 171 r to;
#X obj 72 172 r~ wave;
#X obj 22 68 r~ freq;
#X obj 22 89 phasor~;
#X obj 22 116 *~ 1;
#X obj 22 146 +~ 0;
#X obj 80 97 r mult;
#X obj 80 127 r add;
#X obj 19 497 outlet~;
#X obj 20 390 *~ 0.125;
#X obj 20 413 rzero~ -1;
#X obj 20 436 rzero~ -1;
#X obj 20 459 rzero~ -1;
#X obj 20 255 *~ 0.2368;
#X obj 21 301 *~ 0.06261;
#X obj 20 278 rpole~ 0.76319;
#X obj 20 344 cpole~ 0.85223 0.20194;
#X obj 20 368 cpole~ 0.85223 -0.2019;
#X floatatom 374 204 7 0 0 0 - - -;
#X floatatom 374 417 7 0 0 0 - - -;
#X obj 374 229 / 22050;
#X floatatom 393 395 7 0 0 0 - - -;
#X floatatom 412 373 7 0 0 0 - - -;
#X floatatom 431 351 7 0 0 0 - - -;
#X floatatom 450 329 7 0 0 0 - - -;
#X floatatom 469 307 7 0 0 0 - - -;
#X text 430 418 normalizer for rpole~;
#X text 452 395 normalizer for cpole~;
#X text 470 374 coef for rpole~;
#X text 490 353 coef for cpole~ real part;
#X text 529 309 coef for cpole~ imag part;
#X text 521 329 (same \, other cpole~);
#X msg 374 179 15000;
#X text 424 178 desired cutoff frequency;
#X text 439 223 divide by nyquist frequency of this subpatch \, which
is 22050*16 because of the 16-times oversampling., f 36;
#X text 368 126 Here is how to calculate the filter coefficients:;
#X text 255 47 These objects make a 3-pole \, 3-zero Butterworth low-pass
filter with cutoff at 15kHz (assuming 16x44100 sample rate). The filter
was designed using the "buttercoef3" abstraction introduced in patch
H13.butterworth.pd in this series.;
#N canvas 0 50 815 623 buttercoef3 0;
#X obj 119 96 inlet;
#X floatatom 582 159 5 0 0 0 - - -;
#X obj 159 199 t f f, f 7;
#X msg 159 151 0.667;
#X msg 139 329 0;
#X obj 575 316 loadbang;
#X obj 586 344 inlet;
#X obj 575 368 f;
#X obj 575 392 expr 1 - 2*$f1;
#X obj 119 124 t b b b f;
#X obj 266 277 * -1;
#X obj 221 277 t f f;
#X obj 119 437 f;
#X obj 66 533 outlet;
#X text 573 283 1 to normalize at Nyquist;
#X text 115 75 characteristic frequency \, 0(DC) to 1(Nyquist);
#X obj 341 533 outlet;
#X obj 497 533 outlet;
#X text 497 557 imag2a;
#X text 341 557 real1;
#X text 432 557 real2;
#X obj 558 533 outlet;
#X text 558 557 imag2b;
#X obj 431 533 outlet;
#X text 63 557 normalizer1;
#X obj 231 533 outlet;
#X text 228 557 normalizer2;
#X obj 231 482 expr (($f2-$f1)*($f2-$f1)+$f3*$f3);
#X obj 119 458 t f f;
#X obj 159 222 expr (1 - $f2*$f2) / (1 + $f2*$f2 + 2*$f2*cos($f1))
;
#X obj 221 250 expr 2*$f2*sin($f1) / (1 + $f2*$f2 + 2*$f2*cos($f1))
;
#X obj 139 353 expr (1 - $f2*$f2) / (1 + $f2*$f2 + 2*$f2*cos($f1))
;
#X obj 582 114 clip 0 1;
#X obj 582 136 expr tan($f1*1.57);
#X obj 159 176 expr $f1*1.5708;
#X text 573 297 0 to normalize at DC;
#X text 175 23 3-pole (or zero) Butterworth filter coefficient calculator
;
#X text 203 152 "theta" in units of pi/2;
#X text 269 183 conjugate pair of pole/zero locations:;
#X text 255 200 real part: (1-r*r)/(1+r*r-2rcos(th));
#X text 306 275 imaginary part: 2rsin(th)/(...);
#X text 328 328 real-valued one \, theta=0;
#X obj 66 505 expr abs($f1-$f2);
#X connect 0 0 9 0;
#X connect 1 0 29 1;
#X connect 1 0 30 1;
#X connect 1 0 31 1;
#X connect 2 0 29 0;
#X connect 2 1 30 0;
#X connect 3 0 34 0;
#X connect 4 0 31 0;
#X connect 5 0 7 0;
#X connect 6 0 7 0;
#X connect 7 0 8 0;
#X connect 8 0 12 1;
#X connect 9 0 12 0;
#X connect 9 1 4 0;
#X connect 9 2 3 0;
#X connect 9 3 32 0;
#X connect 10 0 21 0;
#X connect 11 0 17 0;
#X connect 11 0 27 2;
#X connect 11 1 10 0;
#X connect 12 0 28 0;
#X connect 27 0 25 0;
#X connect 28 0 42 0;
#X connect 28 1 27 0;
#X connect 29 0 23 0;
#X connect 29 0 27 1;
#X connect 30 0 11 0;
#X connect 31 0 16 0;
#X connect 31 0 42 1;
#X connect 32 0 33 0;
#X connect 33 0 1 0;
#X connect 34 0 2 0;
#X connect 42 0 13 0;
#X restore 374 278 pd buttercoef3;
#X text 417 21 From pd-doc.;
#X obj 121 314 sig~;
#X obj 171 314 sig~;
#X obj 197 342 sig~;
#X obj 374 158 loadbang;
#X obj 374 254 / 16;
#X obj 168 475 block~ 64 1 16;
#X connect 0 0 14 0;
#X connect 1 0 0 0;
#X connect 2 0 0 1;
#X connect 3 0 4 0;
#X connect 4 0 5 0;
#X connect 5 0 6 0;
#X connect 6 0 0 0;
#X connect 7 0 5 1;
#X connect 8 0 6 1;
#X connect 10 0 11 0;
#X connect 11 0 12 0;
#X connect 12 0 13 0;
#X connect 13 0 9 0;
#X connect 14 0 16 0;
#X connect 15 0 17 0;
#X connect 16 0 15 0;
#X connect 17 0 18 0;
#X connect 17 1 18 1;
#X connect 18 0 10 0;
#X connect 19 0 21 0;
#X connect 20 0 14 1;
#X connect 21 0 44 0;
#X connect 22 0 15 1;
#X connect 23 0 16 1;
#X connect 24 0 40 0;
#X connect 25 0 41 0;
#X connect 26 0 42 0;
#X connect 33 0 19 0;
#X connect 38 0 20 0;
#X connect 38 1 22 0;
#X connect 38 2 23 0;
#X connect 38 3 24 0;
#X connect 38 4 25 0;
#X connect 38 5 26 0;
#X connect 40 0 17 2;
#X connect 40 0 18 2;
#X connect 41 0 17 3;
#X connect 42 0 18 3;
#X connect 43 0 33 0;
#X connect 44 0 38 0;
#X restore 255 340 pd 16xOS;
#N canvas 0 50 336 292 clip 0;
#X obj 93 68 inlet;
#X obj 147 68 loadbang;
#X obj 147 108 samplerate~;
#X obj 93 136 min;
#X obj 125 168 * -1;
#X obj 93 168 max;
#X obj 93 230 outlet;
#X msg 147 89 bang;
#X obj 147 126 / 3;
#X connect 0 0 3 0;
#X connect 1 0 7 0;
#X connect 2 0 8 0;
#X connect 3 0 5 0;
#X connect 4 0 5 1;
#X connect 5 0 6 0;
#X connect 7 0 2 0;
#X connect 8 0 3 1;
#X connect 8 0 4 0;
#X restore 16 116 pd clip freq;
#X connect 0 0 1 0;
#X connect 1 0 2 0;
#X connect 2 0 85 0;
#X connect 3 0 4 0;
#X connect 4 0 48 0;
#X connect 5 0 6 0;
#X connect 6 0 7 1;
#X connect 7 0 8 0;
#X connect 7 0 8 1;
#X connect 9 0 18 0;
#X connect 18 0 41 0;
#X connect 19 0 28 0;
#X connect 28 0 42 0;
#X connect 29 0 30 0;
#X connect 30 0 51 0;
#X connect 31 0 32 0;
#X connect 32 0 29 0;
#X connect 33 0 60 0;
#X connect 37 0 38 0;
#X connect 38 0 36 0;
#X connect 43 0 33 0;
#X connect 44 0 45 0;
#X connect 45 0 49 0;
#X connect 46 0 47 0;
#X connect 47 0 50 0;
#X connect 52 0 33 1;
#X connect 53 0 54 0;
#X connect 54 0 55 0;
#X connect 55 0 56 0;
#X connect 56 0 33 0;
#X connect 57 0 55 1;
#X connect 58 0 56 1;
#X connect 59 0 73 0;
#X connect 60 0 69 0;
#X connect 61 0 66 0;
#X connect 67 0 68 0;
#X connect 68 0 60 1;
#X connect 70 0 7 0;
#X connect 70 0 36 0;
#X connect 71 0 72 0;
#X connect 72 0 59 1;
#X connect 74 0 77 0;
#X connect 75 0 74 0;
#X connect 76 0 81 0;
#X connect 78 0 80 0;
#X connect 79 0 82 0;
#X connect 81 0 74 1;
#X connect 82 0 78 1;
#X connect 83 0 59 0;
#X connect 84 0 78 0;
#X connect 85 0 3 0;
